<?xml version="1.0" standalone="no"?>
<!DOCTYPE svg PUBLIC "-//W3C//DTD SVG 20010904//EN"
 "http://www.w3.org/TR/2001/REC-SVG-20010904/DTD/svg10.dtd">
<svg version="1.0" xmlns="http://www.w3.org/2000/svg"
 width="1060.000000pt" height="1060.000000pt" viewBox="0 0 1060.000000 1060.000000"
 preserveAspectRatio="xMidYMid meet">
<metadata>
Created by potrace 1.14, written by Peter Selinger 2001-2017
</metadata>
<g transform="translate(0.000000,1060.000000) scale(0.100000,-0.100000)"
fill="#000000" stroke="none">
<path d="M4990 7105 c-30 -19 -63 -35 -72 -35 -9 0 -31 -13 -48 -29 -18 -16
-64 -45 -104 -66 -39 -20 -100 -56 -136 -81 -35 -24 -71 -44 -80 -44 -24 0
-109 -44 -110 -57 0 -15 -112 -83 -137 -83 -30 0 -130 -58 -136 -79 -6 -24
-107 -81 -143 -81 -16 0 -47 -11 -69 -25 -22 -13 -48 -25 -57 -25 -13 0 -18
-8 -18 -27 0 -25 -12 -35 -96 -83 -66 -38 -104 -54 -123 -51 -17 2 -58 -13
-118 -45 -81 -43 -93 -52 -93 -75 0 -24 -17 -37 -147 -113 -131 -78 -152 -87
-202 -89 -48 -3 -73 -12 -171 -68 -112 -62 -115 -65 -115 -98 0 -34 -3 -36
-155 -127 l-155 -93 -70 0 c-69 -1 -72 -2 -235 -93 -91 -50 -168 -96 -173
-102 -4 -6 -6 -28 -3 -49 l3 -38 -151 -90 -151 -89 -90 0 -89 0 -257 -145
c-142 -80 -262 -145 -268 -145 -7 0 -11 -25 -11 -64 0 -59 -2 -66 -27 -84 -58
-39 -542 -322 -552 -322 -7 0 -11 -32 -11 -92 1 -91 1 -94 32 -123 17 -16 45
-59 62 -95 28 -59 31 -74 31 -165 0 -88 -3 -107 -27 -158 -15 -32 -43 -77 -63
-101 -34 -41 -35 -46 -35 -123 l0 -80 197 -6 c108 -4 298 -7 423 -7 l227 0
273 263 c151 144 436 418 635 609 l360 347 2760 0 2760 1 635 -611 635 -611
254 6 c140 3 335 6 433 6 l178 0 0 71 c0 71 0 72 -44 119 -89 95 -129 225
-106 343 15 78 62 167 111 212 39 35 39 36 39 110 0 63 -3 77 -17 82 -10 3
-147 83 -305 176 l-288 170 0 61 0 61 -264 148 -263 147 -89 0 -89 0 -152 91
-153 91 0 46 0 47 -168 93 c-165 91 -169 92 -237 93 -70 0 -70 1 -225 93 -150
89 -155 93 -158 127 -3 34 -8 38 -121 102 -102 58 -124 67 -168 67 -46 0 -65
8 -197 86 -129 76 -146 89 -146 113 0 23 -12 32 -93 75 -66 35 -100 47 -116
43 -35 -9 -221 100 -221 129 0 25 -103 84 -148 84 -34 1 -134 59 -146 86 -10
23 -101 74 -130 74 -27 0 -128 60 -133 79 -5 16 -87 61 -111 61 -16 0 -152 79
-152 89 0 3 -16 14 -35 24 -19 9 -51 25 -70 35 -20 9 -50 29 -66 45 -17 15
-37 27 -46 27 -8 0 -41 16 -73 35 -32 19 -70 35 -86 35 l-28 0 34 -35 34 -35
-264 0 -264 0 34 35 34 35 -30 0 c-16 0 -54 -16 -84 -35z m640 -100 l23 -25
-357 0 -357 0 28 25 28 24 306 1 306 0 23 -25z m130 -120 l34 -35 -494 0 -494
0 34 35 34 35 426 0 426 0 34 -35z m143 -140 c15 -13 27 -27 27 -30 0 -3 -283
-5 -630 -5 -380 0 -630 4 -630 9 0 5 12 19 26 30 26 21 35 21 603 21 l576 -1
28 -24z m167 -160 l34 -35 -804 0 -804 0 34 35 34 35 736 0 736 0 34 -35z
m208 -198 c23 -23 42 -45 42 -47 0 -3 -461 -5 -1025 -5 l-1024 0 46 48 47 47
936 0 936 0 42 -43z m312 -302 l64 -65 -1357 -2 c-746 -2 -1357 -1 -1357 2 0
3 30 33 67 67 l68 62 1225 1 1226 0 64 -65z m402 -385 l73 -69 -1766 -1 -1767
0 72 70 71 70 1622 0 1621 0 74 -70z m485 -465 l68 -64 -2245 -1 -2244 0 64
65 64 65 2113 0 2113 0 67 -65z"/>
</g>
</svg>
